<?xml version="1.0" encoding="utf-8"?>
<!-- Generator: Adobe Illustrator 23.0.0, SVG Export Plug-In . SVG Version: 6.00 Build 0)  -->
<svg version="1.2" baseProfile="tiny" id="Capa_1" xmlns="http://www.w3.org/2000/svg" xmlns:xlink="http://www.w3.org/1999/xlink"
	 x="0px" y="0px" viewBox="0 0 79.99 50.72" xml:space="preserve">
<g>
	<path fill="#FFFFFF" d="M-1.43,5.43c26.76-0.02,53.52,0,80.27-0.19c0.93-0.01,1.21,1.55,1.14,7.37C79.91,19.6,80,26.67,79.96,33.69
		c-0.05,8.85-1.03,14.93-2.42,15.43c-0.2,0.07-0.41,0.02-0.61,0.02c-25.08,0-50.16-0.05-75.23,0.12c-1.55,0.01-2.6-3.3-3.16-12.53
		C-1.96,26.27-2.11,15.83-1.43,5.43z"/>
	<path fill="#F5F5F5" d="M63.33,28.1c0,7.05,0.01,14.11,0.01,21.16c-0.43,0.46-1.01,0.4-1.56,0.4c-14.83,0.01-29.66,0.01-44.49,0
		c-0.55,0-1.13,0.06-1.56-0.4c0-11.26,0.02-22.52-0.02-33.79c0-1.16,0.33-1.44,1.46-1.44c10.47,0.04,20.94,0.03,31.41,0.03
		c-0.21,3.48-0.1,6.95-0.11,10.43c-0.01,2.67,1.06,3.72,3.75,3.72c2.85,0,5.7-0.03,8.56,0.02C61.63,28.26,62.46,27.84,63.33,28.1z"
		/>
	<path fill="#4B89C5" d="M78.78,6.67c-25.89,0-51.78,0-77.67,0.03c-0.9,0-1.17-0.24-1.11-1.12C0.09,4.52,0,3.44,0.04,2.37
		C0.08,1.02,1.03,0.1,2.38,0.02c0.2-0.01,0.4,0,0.59,0C27.24,0.02,51.5,0.03,75.77,0c1.5,0,2.52,0.5,3.06,1.91
		C79.31,3.5,79.45,5.09,78.78,6.67z"/>
	<path fill="#C8C8C7" d="M78.78,6.67c0.01-1.59,0.03-3.18,0.04-4.77C79.74,2.47,80,3.29,80,4.33c-0.02,14.51-0.01,29.03-0.01,43.54
		c0,1.9-0.95,2.83-2.86,2.83c-24.35,0-48.69,0-73.04,0.01c-1.09,0-1.91-0.32-2.58-1.46c4.84,0,9.54,0,14.23,0
		c15.87,0,31.74,0,47.61,0c4.35,0.01,8.71,0.02,13.06,0.02c1.54,0,2.39-0.89,2.39-2.46C78.8,33.44,78.79,20.05,78.78,6.67z"/>
	<path fill="#F5F5F5" d="M49.52,14.06c2.62,0.13,5.27-0.33,7.86,0.65c3.16,1.21,5.92,4.9,5.95,8.28c0.01,1.46,0,2.93,0,4.39
		c-0.16,0.03,0.05,0.04-0.11,0.04c-4.27,0.19-8.55,0.12-12.82,0.03c-0.73-0.02-1.18-0.52-1.2-1.24c-0.09-3.8-0.09-7.6,0-11.41
		C49.21,14.53,49.33,14.28,49.52,14.06z"/>
	<path fill="#EFEDED" d="M49.52,14.06c0,3.88,0.04,7.76-0.02,11.64c-0.02,1.18,0.4,1.48,1.51,1.46c3.6-0.06,7.21-0.02,10.81-0.02
		c0.51,0,1.03-0.06,1.5,0.24c0,0.24,0,0.47,0,0.71c-0.81,0.49-1.7,0.49-2.61,0.49c-3.13-0.02-6.25,0-9.38-0.01
		c-1.77,0-3.23-1.45-3.23-3.22c-0.01-3.13,0.01-6.25-0.01-9.38c-0.01-0.7,0.13-1.33,0.49-1.92C48.89,14.06,49.21,14.06,49.52,14.06z
		"/>
	<path fill="#2B89C8" d="M40.56,38.33c-2.16,0-2.16,0-2.16-2.18c0-1.23,0.03-2.45-0.01-3.68c-0.02-0.62,0.19-0.84,0.81-0.82
		c0.95,0.04,1.9,0.02,2.85,0.01c0.37,0,0.61,0.08,0.59,0.52c-0.02,0.39-0.26,0.43-0.56,0.43c-0.51,0-1.03,0.03-1.54-0.01
		c-0.67-0.05-1,0.09-0.99,0.88c0.01,0.77,0.38,0.83,0.96,0.79c0.39-0.02,0.79-0.01,1.19,0c0.31,0,0.65-0.03,0.66,0.45
		c0.02,0.47-0.27,0.5-0.61,0.5c-0.32,0-0.64,0.05-0.95-0.01c-1.17-0.23-1.29,0.41-1.24,1.34c0.03,0.61,0.19,0.86,0.82,0.82
		c0.59-0.04,1.19-0.01,1.78-0.01c0.34,0.01,0.75-0.08,0.72,0.5c-0.02,0.58-0.45,0.43-0.77,0.45C41.59,38.35,41.07,38.33,40.56,38.33
		z"/>
	<path fill="#308AC9" d="M24.98,35.38c0.01-0.96,0.03-1.59,0.26-2.2c0.36-0.95,1-1.51,2.04-1.51c1,0,1.62,0.6,1.95,1.47
		c0.43,1.15,0.44,2.33,0.07,3.5c-0.31,0.98-0.93,1.67-2.04,1.68c-1.17,0.01-1.81-0.68-2.09-1.75
		C25.05,36.09,25.01,35.57,24.98,35.38z"/>
	<path fill="#2F8AC8" d="M24.2,36.08c-0.09,0.23-0.13,0.47-0.21,0.49c-0.76,0.13-0.59,0.71-0.59,1.19c0,0.38-0.11,0.6-0.54,0.58
		c-0.35-0.01-0.7-0.05-0.62-0.49c0.25-1.39-0.68-1.18-1.51-1.18c-1.57,0.01-1.7-0.2-0.95-1.56c0.59-1.07,1.3-2.07,2.09-3.01
		c0.36-0.43,0.8-0.53,1.27-0.38c0.46,0.15,0.23,0.61,0.25,0.93c0.04,0.51,0.03,1.03,0,1.54C23.34,34.95,23.33,35.69,24.2,36.08z"/>
	<path fill="#2F8AC8" d="M33.72,38.33c-0.43,0.03-0.6-0.2-0.55-0.58c0.15-0.92-0.26-1.12-1.12-1.1c-2.11,0.05-2.2-0.11-1.1-1.93
		c0.53-0.87,1.17-1.68,1.76-2.52c0.33-0.47,0.8-0.68,1.34-0.49c0.52,0.18,0.25,0.68,0.27,1.03c0.04,0.75,0.14,1.53-0.02,2.25
		c-0.18,0.78,1.14,0.73,0.71,1.35c-0.31,0.45-0.81,0.73-0.69,1.4C34.41,38.19,34.16,38.39,33.72,38.33z"/>
	<path fill="#2F8AC9" d="M56.19,35.8c0.02,1.49-0.96,2.53-2.38,2.54c-1.37,0.01-2.34-0.98-2.38-2.41c-0.04-1.52,0.89-2.56,2.31-2.59
		C55.16,33.3,56.17,34.32,56.19,35.8z"/>
	<path fill="#2E89C8" d="M43.82,35.81c0-0.2,0-0.4,0-0.59c0-1.96,0.38-2.27,2.32-1.85c0.28,0.06,0.69,0.05,0.63,0.52
		c-0.04,0.34-0.3,0.46-0.61,0.4c-1.08-0.2-1.25,0.37-1.17,1.27c0.06,0.71,0,1.42,0.02,2.13c0.01,0.42-0.1,0.65-0.59,0.66
		c-0.48,0-0.62-0.2-0.6-0.64C43.83,37.07,43.82,36.44,43.82,35.81z"/>
	<path fill="#2F89C8" d="M48.89,33.33c0.31,0,0.43-0.01,0.54,0c0.45,0.03,1.09-0.09,1.11,0.52c0.02,0.64-0.64,0.44-1.03,0.42
		c-0.6-0.03-0.74,0.24-0.72,0.77c0.03,0.87,0,1.74,0.01,2.61c0,0.4-0.04,0.67-0.56,0.69c-0.57,0.02-0.65-0.26-0.64-0.72
		c0.02-0.95,0.09-1.91-0.02-2.84C47.47,33.57,47.84,33.05,48.89,33.33z"/>
	<path fill="#308AC9" d="M57.14,35.8c0-0.2,0-0.4,0-0.59c0-1.94,0.4-2.26,2.33-1.84c0.28,0.06,0.69,0.06,0.62,0.53
		c-0.05,0.34-0.31,0.45-0.62,0.39c-1.1-0.21-1.23,0.39-1.16,1.28c0.06,0.71,0,1.42,0.02,2.13c0.01,0.43-0.12,0.64-0.6,0.65
		c-0.49,0-0.61-0.22-0.59-0.65C57.16,37.06,57.14,36.43,57.14,35.8z"/>
	<path fill="#C23436" d="M4.54,5.28c-0.79-0.1-1.39-0.44-1.41-1.29C3.12,3.1,3.7,2.65,4.56,2.65c0.81,0,1.37,0.42,1.4,1.25
		C5.99,4.81,5.38,5.18,4.54,5.28z"/>
	<path fill="#F1DA2E" d="M8.08,2.61c0.86,0.11,1.45,0.46,1.45,1.33c0,0.86-0.56,1.29-1.37,1.3C7.28,5.25,6.69,4.82,6.71,3.89
		C6.73,3.02,7.37,2.72,8.08,2.61z"/>
	<path fill="#3C9843" d="M13.15,3.8c-0.09,0.98-0.54,1.45-1.44,1.45c-0.88,0-1.43-0.4-1.44-1.31c-0.01-0.85,0.53-1.25,1.33-1.3
		C12.5,2.58,12.96,3.06,13.15,3.8z"/>
	<path fill="#F4F4F5" d="M26.13,35.12c0.08-0.71-0.04-1.36,0.32-1.94c0.46-0.74,1.21-0.78,1.57-0.01c0.53,1.16,0.48,2.39,0.04,3.59
		c-0.12,0.34-0.4,0.6-0.81,0.61c-0.42,0.01-0.62-0.28-0.82-0.59C26.09,36.24,26.24,35.62,26.13,35.12z"/>
	<path fill="#F1F2F4" d="M20.62,35.66c0.34-0.9,0.85-1.56,1.43-2.31C22.48,35.64,22.41,35.76,20.62,35.66z"/>
	<path fill="#F1F2F4" d="M31.56,35.66c0.35-0.9,0.85-1.56,1.44-2.31C33.41,35.67,33.36,35.76,31.56,35.66z"/>
	<path fill="#F3F4F4" d="M55.01,35.77c-0.01,0.89-0.27,1.6-1.22,1.59c-0.97-0.01-1.18-0.74-1.17-1.57c0.01-0.79,0.26-1.46,1.15-1.47
		C54.72,34.29,55,34.98,55.01,35.77z"/>
</g>
</svg>
